<?xml version="1.0" encoding="UTF-8" standalone="no"?>
<svg
   xmlns:dc="http://purl.org/dc/elements/1.1/"
   xmlns:cc="http://creativecommons.org/ns#"
   xmlns:rdf="http://www.w3.org/1999/02/22-rdf-syntax-ns#"
   xmlns:svg="http://www.w3.org/2000/svg"
   xmlns="http://www.w3.org/2000/svg"
   xmlns:sodipodi="http://sodipodi.sourceforge.net/DTD/sodipodi-0.dtd"
   xmlns:inkscape="http://www.inkscape.org/namespaces/inkscape"
   width="143pt"
   height="119pt"
   viewBox="0 0 143 119"
   version="1.1"
   id="svg2"
   inkscape:version="0.48.2 r9819"
   sodipodi:docname="cv-horizontal.svg"
   inkscape:export-filename="/home/seler/projects/cvm/cvm/materials/cv-horizontal-m.png"
   inkscape:export-xdpi="72.972977"
   inkscape:export-ydpi="72.972977">
  <metadata
     id="metadata12">
    <rdf:RDF>
      <cc:Work
         rdf:about="">
        <dc:format>image/svg+xml</dc:format>
        <dc:type
           rdf:resource="http://purl.org/dc/dcmitype/StillImage" />
        <dc:title></dc:title>
      </cc:Work>
    </rdf:RDF>
  </metadata>
  <defs
     id="defs10" />
  <sodipodi:namedview
     pagecolor="#ffffff"
     bordercolor="#666666"
     borderopacity="1"
     objecttolerance="10"
     gridtolerance="10"
     guidetolerance="10"
     inkscape:pageopacity="0"
     inkscape:pageshadow="2"
     inkscape:window-width="1920"
     inkscape:window-height="1056"
     id="namedview8"
     showgrid="false"
     inkscape:zoom="2.2437271"
     inkscape:cx="218.89003"
     inkscape:cy="53.542878"
     inkscape:window-x="0"
     inkscape:window-y="24"
     inkscape:window-maximized="1"
     inkscape:current-layer="svg2"
     showguides="true"
     inkscape:guide-bbox="true" />
  <path
     d="M 0,0.6 400,0.6 400,119 0,119 0,0.6 z"
     id="path4"
     inkscape:connector-curvature="0"
     style="fill:#fcfdfb" />
  <g
     id="g3757"
     transform="translate(7.2,71.184801)">
    <path
       sodipodi:nodetypes="ccccccccccccccsccccccc"
       style="fill:#0c0d0c"
       inkscape:connector-curvature="0"
       id="path6"
       d="m 8.8,-30.55739 c 0.6514501,-8.911451 8.953261,-15.031768 17.438815,-15.216723 22.399857,-0.100884 44.833121,0.100885 67.249682,0.470794 5.428746,0.05044 10.590233,3.076972 13.279563,7.83535 9.97219,15.822029 19.54349,31.9130824 29.08139,48.020949 2.20042,3.312218 5.70072,3.5782 7.57544,0.971146 11.59247,-19.1512078 22.47478,-37.37358 34.26769,-56.39028 5.99669,-1.042472 12.22721,-0.134512 18.30742,-0.420351 -13.32967,22.345883 -26.87649,44.55725295 -40.60705,66.63411 -6.74835,10.861881 -24.12035,10.912323 -30.8353,0.01681 -10.37309,-15.9733548 -19.84416,-32.568829 -29.816365,-48.811209 -1.670385,-2.807947 -4.760596,-4.943332 -8.118069,-4.623865 -19.476684,0.218582 -38.970072,0.100883 -58.446755,0.117698 -4.443223,-0.353096 -5.929865,4.405283 -5.495565,8.053933 0.226609,10.749421 0.296626,21.5653536 0.160841,32.328656 -0.03897,3.089046 0.722726,6.067708 9.252455,6.391058 8.376192,0.608367 4.60123,0.322528 11.165841,0.524296 16.687142,0.01681 33.374283,0.62212 50.061426,0.420352 0,4.775192 0.0167,9.550384 -0.267262,14.325577 C 71.439421,29.973214 49.807941,30.259053 28.193164,29.905957 19.857946,30.393568 11.038316,24.659974 9.301115,16.286574 9.0505575,0.68312846 8.9503341,-14.937131 8.8,-30.55739 z" />
    <text
       transform="scale(0.93719867,1.0670096)"
       sodipodi:linespacing="125%"
       id="text2989"
       y="27.834671"
       x="207.51125"
       style="font-size:50.42596436px;font-style:normal;font-variant:normal;font-weight:normal;font-stretch:normal;line-height:125%;letter-spacing:0px;word-spacing:0px;fill:#0d668f;fill-opacity:0.94117647;stroke:none;font-family:Ubuntu;-inkscape-font-specification:Ubuntu"
       xml:space="preserve"><tspan
         y="27.834671"
         x="207.51125"
         id="tspan2991"
         sodipodi:role="line">manager</tspan></text>
  </g>
</svg>
