<?xml version="1.0" encoding="UTF-8" standalone="no"?>
<svg
   xmlns:dc="http://purl.org/dc/elements/1.1/"
   xmlns:cc="http://creativecommons.org/ns#"
   xmlns:rdf="http://www.w3.org/1999/02/22-rdf-syntax-ns#"
   xmlns:svg="http://www.w3.org/2000/svg"
   xmlns="http://www.w3.org/2000/svg"
   xmlns:sodipodi="http://sodipodi.sourceforge.net/DTD/sodipodi-0.dtd"
   xmlns:inkscape="http://www.inkscape.org/namespaces/inkscape"
   width="143pt"
   height="119pt"
   viewBox="0 0 143 119"
   version="1.1"
   id="svg2"
   inkscape:version="0.48.2 r9819"
   sodipodi:docname="cv.svg"
   inkscape:export-filename="/home/seler/projects/cvm/cvm/materials/cv16.png"
   inkscape:export-xdpi="5.625"
   inkscape:export-ydpi="5.625">
  <metadata
     id="metadata12">
    <rdf:RDF>
      <cc:Work
         rdf:about="">
        <dc:format>image/svg+xml</dc:format>
        <dc:type
           rdf:resource="http://purl.org/dc/dcmitype/StillImage" />
        <dc:title></dc:title>
      </cc:Work>
    </rdf:RDF>
  </metadata>
  <defs
     id="defs10" />
  <sodipodi:namedview
     pagecolor="#ffffff"
     bordercolor="#666666"
     borderopacity="1"
     objecttolerance="10"
     gridtolerance="10"
     guidetolerance="10"
     inkscape:pageopacity="0"
     inkscape:pageshadow="2"
     inkscape:window-width="1092"
     inkscape:window-height="823"
     id="namedview8"
     showgrid="false"
     inkscape:zoom="1.5865546"
     inkscape:cx="110.96826"
     inkscape:cy="120.51864"
     inkscape:window-x="449"
     inkscape:window-y="138"
     inkscape:window-maximized="0"
     inkscape:current-layer="svg2" />
  <path
     d="m 0,-85.8 204.8,0 0,204.8 L 0,119 0,-85.8 z"
     id="path4"
     inkscape:connector-curvature="0"
     style="fill:#000000" />
  <g
     id="g2985"
     transform="matrix(0.99945559,0,0,1.00605,-1.7842347,-17.035734)"
     style="fill:#ffffff">
    <path
       sodipodi:nodetypes="ccccccccccccccsccccccc"
       style="fill:#ffffff"
       inkscape:connector-curvature="0"
       id="path6"
       d="m 10.59,-13.440342 c 0.651805,-8.857861 8.958138,-14.941373 17.448314,-15.125215 22.412058,-0.100278 44.857542,0.100278 67.286313,0.467962 5.431703,0.05014 10.596003,3.058469 13.286793,7.788232 9.97763,15.726881 19.55414,31.721169 29.09723,47.732169 2.20162,3.2923 5.70383,3.556682 7.57957,0.965306 11.59879,-19.0360398 22.48702,-37.1488301 34.28636,-56.05117 5.99995,-1.036203 12.23387,-0.133704 18.31739,-0.417824 -13.33693,22.2115033 -26.89113,44.289303 -40.62917,66.233398 -6.75203,10.796562 -24.13349,10.846701 -30.8521,0.01671 -10.37874,-15.877297 -19.85497,-32.3729727 -29.832602,-48.517677 -1.671295,-2.791061 -4.763189,-4.913605 -8.122491,-4.596059 -19.487293,0.217268 -38.991299,0.100277 -58.478592,0.11699 -4.445643,-0.350972 -5.933095,4.378792 -5.498558,8.0055004 0.226732,10.6847775 0.296788,21.4356676 0.160929,32.1342436 -0.03899,3.07047 0.723119,6.031219 9.257495,6.352625 8.380754,0.604708 4.603736,0.320588 11.171923,0.521143 16.696231,0.01671 33.392462,0.618379 50.088694,0.417824 0,4.746476 0.01671,9.492952 -0.267407,14.239428 -21.62655,-0.11699 -43.269813,0.16713 -64.896363,-0.183842 C 21.653969,47.14408 12.829535,41.444966 11.091388,33.12192 10.840694,17.612308 10.740416,2.0859827 10.59,-13.440342 z" />
    <text
       transform="scale(0.94130201,1.0623583)"
       sodipodi:linespacing="125%"
       id="text2989"
       y="80.390678"
       x="9.1324482"
       style="font-size:50.34217071999999860px;font-style:normal;font-variant:normal;font-weight:normal;font-stretch:normal;line-height:125%;letter-spacing:0px;word-spacing:0px;fill:#ffffff;fill-opacity:1;stroke:none;font-family:Ubuntu;-inkscape-font-specification:Ubuntu"
       xml:space="preserve"><tspan
         y="80.390678"
         x="9.1324482"
         id="tspan2991"
         sodipodi:role="line">manager</tspan></text>
  </g>
</svg>
